<svg width="29" height="29" viewBox="0 0 29 29" fill="none" xmlns="http://www.w3.org/2000/svg">
<path d="M11.0002 21.2083C10.8835 21.2083 10.7785 21.185 10.6618 21.1383C10.3352 21.01 10.1252 20.6833 10.1252 20.3333V13.3333C10.1252 12.855 10.5218 12.4583 11.0002 12.4583C11.4785 12.4583 11.8752 12.855 11.8752 13.3333V18.2216L12.7152 17.3816C13.0535 17.0433 13.6135 17.0433 13.9518 17.3816C14.2902 17.72 14.2902 18.28 13.9518 18.6183L11.6185 20.9516C11.4552 21.115 11.2218 21.2083 11.0002 21.2083Z" fill="#242628"/>
<path d="M11.0002 21.2083C10.7785 21.2083 10.5568 21.1266 10.3818 20.9516L8.0485 18.6183C7.71016 18.28 7.71016 17.72 8.0485 17.3816C8.38683 17.0433 8.94683 17.0433 9.28516 17.3816L11.6185 19.715C11.9568 20.0533 11.9568 20.6133 11.6185 20.9516C11.4435 21.1266 11.2218 21.2083 11.0002 21.2083Z" fill="#242628"/>
<path d="M18.0002 27.0416H11.0002C4.66516 27.0416 1.9585 24.335 1.9585 18V11C1.9585 4.66498 4.66516 1.95831 11.0002 1.95831H16.8335C17.3118 1.95831 17.7085 2.35498 17.7085 2.83331C17.7085 3.31165 17.3118 3.70831 16.8335 3.70831H11.0002C5.62183 3.70831 3.7085 5.62165 3.7085 11V18C3.7085 23.3783 5.62183 25.2916 11.0002 25.2916H18.0002C23.3785 25.2916 25.2918 23.3783 25.2918 18V12.1666C25.2918 11.6883 25.6885 11.2916 26.1668 11.2916C26.6452 11.2916 27.0418 11.6883 27.0418 12.1666V18C27.0418 24.335 24.3352 27.0416 18.0002 27.0416Z" fill="#242628"/>
<path d="M26.1668 13.0416H21.5002C17.5102 13.0416 15.9585 11.49 15.9585 7.49998V2.83331C15.9585 2.48331 16.1685 2.15665 16.4952 2.02831C16.8218 1.88831 17.1952 1.96998 17.4518 2.21498L26.7852 11.5483C27.0302 11.7933 27.1118 12.1783 26.9718 12.505C26.8318 12.8316 26.5168 13.0416 26.1668 13.0416ZM17.7085 4.94498V7.49998C17.7085 10.51 18.4902 11.2916 21.5002 11.2916H24.0552L17.7085 4.94498Z" fill="#242628"/>
</svg>
